<mxfile host="app.diagrams.net" modified="2021-08-17T09:43:20.857Z" agent="5.0 (Windows NT 10.0; Win64; x64) AppleWebKit/537.36 (KHTML, like Gecko) Chrome/92.0.4515.131 Safari/537.36" etag="Qh_v6XbLorwh7qdYjke0" version="14.9.6" type="github">
  <diagram id="I122SE7lPOgU0XPG9THC" name="第 1 页">
    <mxGraphModel dx="1422" dy="794" grid="1" gridSize="10" guides="1" tooltips="1" connect="1" arrows="1" fold="1" page="1" pageScale="1" pageWidth="827" pageHeight="1169" math="0" shadow="0">
      <root>
        <mxCell id="0" />
        <mxCell id="1" parent="0" />
        <mxCell id="WVvvgctKNfWPRjZpKwjH-1" value="" style="edgeStyle=orthogonalEdgeStyle;rounded=0;orthogonalLoop=1;jettySize=auto;html=1;" edge="1" parent="1" source="WVvvgctKNfWPRjZpKwjH-2" target="WVvvgctKNfWPRjZpKwjH-4">
          <mxGeometry relative="1" as="geometry" />
        </mxCell>
        <mxCell id="WVvvgctKNfWPRjZpKwjH-2" value="provider遍历平台ID为1的提供者" style="rounded=1;whiteSpace=wrap;html=1;" vertex="1" parent="1">
          <mxGeometry x="397.5" y="20" width="130" height="60" as="geometry" />
        </mxCell>
        <mxCell id="WVvvgctKNfWPRjZpKwjH-3" value="" style="edgeStyle=orthogonalEdgeStyle;rounded=0;orthogonalLoop=1;jettySize=auto;html=1;" edge="1" parent="1" source="WVvvgctKNfWPRjZpKwjH-4" target="WVvvgctKNfWPRjZpKwjH-10">
          <mxGeometry relative="1" as="geometry" />
        </mxCell>
        <mxCell id="WVvvgctKNfWPRjZpKwjH-4" value="从数脉shop表查询分表下标" style="rounded=0;whiteSpace=wrap;html=1;" vertex="1" parent="1">
          <mxGeometry x="402.5" y="120" width="120" height="60" as="geometry" />
        </mxCell>
        <mxCell id="WVvvgctKNfWPRjZpKwjH-5" value="&lt;h1&gt;前置&lt;/h1&gt;&lt;div&gt;&lt;/div&gt;&lt;span style=&quot;text-align: center&quot;&gt;1. provider新增字段记录同步ID（OuidSyncId）&lt;br&gt;&lt;/span&gt;" style="text;html=1;strokeColor=none;fillColor=none;spacing=5;spacingTop=-20;whiteSpace=wrap;overflow=hidden;rounded=0;" vertex="1" parent="1">
          <mxGeometry x="10" y="20" width="260" height="120" as="geometry" />
        </mxCell>
        <mxCell id="WVvvgctKNfWPRjZpKwjH-8" value="" style="edgeStyle=orthogonalEdgeStyle;rounded=0;orthogonalLoop=1;jettySize=auto;html=1;" edge="1" parent="1" source="WVvvgctKNfWPRjZpKwjH-10" target="WVvvgctKNfWPRjZpKwjH-19">
          <mxGeometry relative="1" as="geometry" />
        </mxCell>
        <mxCell id="WVvvgctKNfWPRjZpKwjH-9" value="FALSE" style="edgeLabel;html=1;align=center;verticalAlign=middle;resizable=0;points=[];" vertex="1" connectable="0" parent="WVvvgctKNfWPRjZpKwjH-8">
          <mxGeometry x="-0.294" y="2" relative="1" as="geometry">
            <mxPoint x="-13" y="-2" as="offset" />
          </mxGeometry>
        </mxCell>
        <mxCell id="WVvvgctKNfWPRjZpKwjH-41" style="edgeStyle=orthogonalEdgeStyle;rounded=0;orthogonalLoop=1;jettySize=auto;html=1;entryX=0.5;entryY=0;entryDx=0;entryDy=0;" edge="1" parent="1" source="WVvvgctKNfWPRjZpKwjH-10" target="WVvvgctKNfWPRjZpKwjH-17">
          <mxGeometry relative="1" as="geometry" />
        </mxCell>
        <mxCell id="WVvvgctKNfWPRjZpKwjH-42" value="TRUE" style="edgeLabel;html=1;align=center;verticalAlign=middle;resizable=0;points=[];" vertex="1" connectable="0" parent="WVvvgctKNfWPRjZpKwjH-41">
          <mxGeometry x="-0.72" y="-1" relative="1" as="geometry">
            <mxPoint as="offset" />
          </mxGeometry>
        </mxCell>
        <mxCell id="WVvvgctKNfWPRjZpKwjH-10" value="判断ouid表的最大ID=同步ID" style="rhombus;whiteSpace=wrap;html=1;" vertex="1" parent="1">
          <mxGeometry x="410" y="210" width="105" height="80" as="geometry" />
        </mxCell>
        <mxCell id="WVvvgctKNfWPRjZpKwjH-11" value="" style="edgeStyle=orthogonalEdgeStyle;rounded=0;orthogonalLoop=1;jettySize=auto;html=1;exitX=0.5;exitY=1;exitDx=0;exitDy=0;" edge="1" parent="1" target="WVvvgctKNfWPRjZpKwjH-14" source="WVvvgctKNfWPRjZpKwjH-17">
          <mxGeometry relative="1" as="geometry">
            <mxPoint x="345" y="500" as="sourcePoint" />
            <Array as="points">
              <mxPoint x="463" y="540" />
              <mxPoint x="463" y="540" />
            </Array>
          </mxGeometry>
        </mxCell>
        <mxCell id="WVvvgctKNfWPRjZpKwjH-12" value="FALSE" style="edgeLabel;html=1;align=center;verticalAlign=middle;resizable=0;points=[];" vertex="1" connectable="0" parent="WVvvgctKNfWPRjZpKwjH-11">
          <mxGeometry x="-0.2556" y="2" relative="1" as="geometry">
            <mxPoint x="-2" y="15" as="offset" />
          </mxGeometry>
        </mxCell>
        <mxCell id="WVvvgctKNfWPRjZpKwjH-13" style="edgeStyle=orthogonalEdgeStyle;rounded=0;orthogonalLoop=1;jettySize=auto;html=1;entryX=1;entryY=0.5;entryDx=0;entryDy=0;exitX=1;exitY=0.5;exitDx=0;exitDy=0;" edge="1" parent="1" source="WVvvgctKNfWPRjZpKwjH-14" target="WVvvgctKNfWPRjZpKwjH-2">
          <mxGeometry relative="1" as="geometry">
            <Array as="points">
              <mxPoint x="680" y="650" />
              <mxPoint x="680" y="50" />
            </Array>
          </mxGeometry>
        </mxCell>
        <mxCell id="WVvvgctKNfWPRjZpKwjH-14" value="重新开始遍历所有provider" style="rounded=1;whiteSpace=wrap;html=1;" vertex="1" parent="1">
          <mxGeometry x="422.5" y="620" width="115" height="60" as="geometry" />
        </mxCell>
        <mxCell id="WVvvgctKNfWPRjZpKwjH-17" value="&lt;span&gt;下一家provider&lt;/span&gt;" style="rhombus;whiteSpace=wrap;html=1;" vertex="1" parent="1">
          <mxGeometry x="422.5" y="440" width="80" height="80" as="geometry" />
        </mxCell>
        <mxCell id="WVvvgctKNfWPRjZpKwjH-25" value="" style="edgeStyle=orthogonalEdgeStyle;rounded=0;orthogonalLoop=1;jettySize=auto;html=1;" edge="1" parent="1" source="WVvvgctKNfWPRjZpKwjH-19" target="WVvvgctKNfWPRjZpKwjH-24">
          <mxGeometry relative="1" as="geometry" />
        </mxCell>
        <mxCell id="WVvvgctKNfWPRjZpKwjH-19" value="批量拉取数据" style="rounded=0;whiteSpace=wrap;html=1;" vertex="1" parent="1">
          <mxGeometry x="90" y="220" width="120" height="60" as="geometry" />
        </mxCell>
        <mxCell id="WVvvgctKNfWPRjZpKwjH-28" style="edgeStyle=orthogonalEdgeStyle;rounded=0;orthogonalLoop=1;jettySize=auto;html=1;entryX=0.5;entryY=0;entryDx=0;entryDy=0;" edge="1" parent="1" source="WVvvgctKNfWPRjZpKwjH-24" target="WVvvgctKNfWPRjZpKwjH-26">
          <mxGeometry relative="1" as="geometry" />
        </mxCell>
        <mxCell id="WVvvgctKNfWPRjZpKwjH-29" value="TRUE" style="edgeLabel;html=1;align=center;verticalAlign=middle;resizable=0;points=[];" vertex="1" connectable="0" parent="WVvvgctKNfWPRjZpKwjH-28">
          <mxGeometry x="-0.6941" relative="1" as="geometry">
            <mxPoint y="14" as="offset" />
          </mxGeometry>
        </mxCell>
        <mxCell id="WVvvgctKNfWPRjZpKwjH-39" style="edgeStyle=orthogonalEdgeStyle;rounded=0;orthogonalLoop=1;jettySize=auto;html=1;entryX=0;entryY=0.5;entryDx=0;entryDy=0;" edge="1" parent="1" source="WVvvgctKNfWPRjZpKwjH-24" target="WVvvgctKNfWPRjZpKwjH-17">
          <mxGeometry relative="1" as="geometry">
            <Array as="points">
              <mxPoint x="320" y="360" />
              <mxPoint x="320" y="480" />
            </Array>
          </mxGeometry>
        </mxCell>
        <mxCell id="WVvvgctKNfWPRjZpKwjH-40" value="FALSE" style="edgeLabel;html=1;align=center;verticalAlign=middle;resizable=0;points=[];" vertex="1" connectable="0" parent="WVvvgctKNfWPRjZpKwjH-39">
          <mxGeometry x="-0.4" y="1" relative="1" as="geometry">
            <mxPoint x="-31" y="-28" as="offset" />
          </mxGeometry>
        </mxCell>
        <mxCell id="WVvvgctKNfWPRjZpKwjH-24" value="&lt;span style=&quot;text-align: left&quot;&gt;ext根据积分账号，昵称查询客户是否存在&lt;/span&gt;" style="rhombus;whiteSpace=wrap;html=1;" vertex="1" parent="1">
          <mxGeometry x="35" y="320" width="230" height="80" as="geometry" />
        </mxCell>
        <mxCell id="WVvvgctKNfWPRjZpKwjH-33" value="" style="edgeStyle=orthogonalEdgeStyle;rounded=0;orthogonalLoop=1;jettySize=auto;html=1;" edge="1" parent="1" source="WVvvgctKNfWPRjZpKwjH-26" target="WVvvgctKNfWPRjZpKwjH-31">
          <mxGeometry relative="1" as="geometry" />
        </mxCell>
        <mxCell id="WVvvgctKNfWPRjZpKwjH-26" value="ext新增ouid" style="rounded=0;whiteSpace=wrap;html=1;" vertex="1" parent="1">
          <mxGeometry x="90" y="450" width="120" height="60" as="geometry" />
        </mxCell>
        <mxCell id="WVvvgctKNfWPRjZpKwjH-34" value="" style="edgeStyle=orthogonalEdgeStyle;rounded=0;orthogonalLoop=1;jettySize=auto;html=1;" edge="1" parent="1" source="WVvvgctKNfWPRjZpKwjH-31" target="WVvvgctKNfWPRjZpKwjH-32">
          <mxGeometry relative="1" as="geometry" />
        </mxCell>
        <mxCell id="WVvvgctKNfWPRjZpKwjH-35" value="TRUE" style="edgeLabel;html=1;align=center;verticalAlign=middle;resizable=0;points=[];" vertex="1" connectable="0" parent="WVvvgctKNfWPRjZpKwjH-34">
          <mxGeometry x="-0.3111" y="-2" relative="1" as="geometry">
            <mxPoint as="offset" />
          </mxGeometry>
        </mxCell>
        <mxCell id="WVvvgctKNfWPRjZpKwjH-37" style="edgeStyle=orthogonalEdgeStyle;rounded=0;orthogonalLoop=1;jettySize=auto;html=1;entryX=0;entryY=0.5;entryDx=0;entryDy=0;" edge="1" parent="1" source="WVvvgctKNfWPRjZpKwjH-31" target="WVvvgctKNfWPRjZpKwjH-17">
          <mxGeometry relative="1" as="geometry">
            <mxPoint x="300" y="480" as="targetPoint" />
            <Array as="points">
              <mxPoint x="270" y="580" />
              <mxPoint x="270" y="480" />
            </Array>
          </mxGeometry>
        </mxCell>
        <mxCell id="WVvvgctKNfWPRjZpKwjH-38" value="FALSE" style="edgeLabel;html=1;align=center;verticalAlign=middle;resizable=0;points=[];" vertex="1" connectable="0" parent="WVvvgctKNfWPRjZpKwjH-37">
          <mxGeometry x="-0.4667" relative="1" as="geometry">
            <mxPoint y="-6" as="offset" />
          </mxGeometry>
        </mxCell>
        <mxCell id="WVvvgctKNfWPRjZpKwjH-31" value="查询ouid是否多条" style="rhombus;whiteSpace=wrap;html=1;" vertex="1" parent="1">
          <mxGeometry x="75" y="540" width="150" height="80" as="geometry" />
        </mxCell>
        <mxCell id="WVvvgctKNfWPRjZpKwjH-36" style="edgeStyle=orthogonalEdgeStyle;rounded=0;orthogonalLoop=1;jettySize=auto;html=1;entryX=0;entryY=0.5;entryDx=0;entryDy=0;" edge="1" parent="1" source="WVvvgctKNfWPRjZpKwjH-32" target="WVvvgctKNfWPRjZpKwjH-17">
          <mxGeometry relative="1" as="geometry" />
        </mxCell>
        <mxCell id="WVvvgctKNfWPRjZpKwjH-32" value="上报数脉" style="rounded=0;whiteSpace=wrap;html=1;" vertex="1" parent="1">
          <mxGeometry x="90" y="660" width="120" height="60" as="geometry" />
        </mxCell>
      </root>
    </mxGraphModel>
  </diagram>
</mxfile>
